{
	"asset":{
		"generator":"Khronos glTF Blender I/O v3.6.27",
		"version":"2.0"
	},
	"extensionsUsed":[
		"KHR_materials_specular",
		"KHR_materials_ior"
	],
	"scene":0,
	"scenes":[
		{
			"name":"Scene",
			"nodes":[
				4
			]
		}
	],
	"nodes":[
		{
			"mesh":0,
			"name":"Car_body",
			"translation":[
				0,
				0,
				-2.288818359375e-05
			]
		},
		{
			"mesh":1,
			"name":"Car_Vehicle_Lamp_LT_On",
			"translation":[
				0,
				0,
				-2.288818359375e-05
			]
		},
		{
			"mesh":2,
			"name":"Car_Vehicle_Lamp_RT_On",
			"translation":[
				0,
				0,
				-2.288818359375e-05
			]
		},
		{
			"mesh":3,
			"name":"Car_Vehicle_Lamp_Stop_On",
			"translation":[
				0,
				0,
				-2.288818359375e-05
			]
		},
		{
			"children":[
				0,
				1,
				2,
				3
			],
			"name":"Car",
			"rotation":[
				0,
				1,
				0,
				7.549789415861596e-08
			],
			"scale":[
				0.009999999776482582,
				0.009999999776482582,
				0.009999999776482582
			],
			"translation":[
				0,
				0,
				0.34899166226387024
			]
		}
	],
	"materials":[
		{
			"doubleSided":true,
			"extensions":{
				"KHR_materials_specular":{
					"specularColorFactor":[
						0,
						0,
						0
					]
				},
				"KHR_materials_ior":{
					"ior":1.4500000476837158
				}
			},
			"name":"CAR.002",
			"pbrMetallicRoughness":{
				"baseColorFactor":[
					0.591813862323761,
					0.591813862323761,
					0.5918136835098267,
					1
				],
				"metallicFactor":0.8931297659873962,
				"roughnessFactor":0.6753724813461304
			}
		},
		{
			"doubleSided":true,
			"emissiveFactor":[
				1,
				0.23529411852359772,
				0
			],
			"extensions":{
				"KHR_materials_specular":{
					"specularColorFactor":[
						0,
						0,
						0
					]
				},
				"KHR_materials_ior":{
					"ior":1.4500000476837158
				}
			},
			"name":"Turn_signal.002",
			"pbrMetallicRoughness":{
				"baseColorFactor":[
					1,
					0.4470588266849518,
					0,
					1
				],
				"roughnessFactor":0.858578622341156
			}
		},
		{
			"doubleSided":true,
			"emissiveFactor":[
				1,
				0,
				0
			],
			"extensions":{
				"KHR_materials_specular":{
					"specularColorFactor":[
						0,
						0,
						0
					]
				},
				"KHR_materials_ior":{
					"ior":1.4500000476837158
				}
			},
			"name":"Brake_Lamp.002",
			"pbrMetallicRoughness":{
				"baseColorFactor":[
					1,
					0.03921568766236305,
					0.03921568766236305,
					1
				],
				"roughnessFactor":0.858578622341156
			}
		}
	],
	"meshes":[
		{
			"name":"Car_body_mesh",
			"primitives":[
				{
					"attributes":{
						"POSITION":0,
						"NORMAL":1,
						"TEXCOORD_0":2
					},
					"indices":3,
					"material":0
				}
			]
		},
		{
			"name":"Car_Vehicle_Lamp_LT_On_mesh.002",
			"primitives":[
				{
					"attributes":{
						"POSITION":4,
						"NORMAL":5,
						"TEXCOORD_0":6
					},
					"indices":7,
					"material":1
				}
			]
		},
		{
			"name":"Car_Vehicle_Lamp_RT_On_mesh.002",
			"primitives":[
				{
					"attributes":{
						"POSITION":8,
						"NORMAL":9,
						"TEXCOORD_0":10
					},
					"indices":11,
					"material":1
				}
			]
		},
		{
			"name":"Car_Vehicle_Lamp_Stop_On_mesh.002",
			"primitives":[
				{
					"attributes":{
						"POSITION":12,
						"NORMAL":13,
						"TEXCOORD_0":14
					},
					"indices":15,
					"material":2
				}
			]
		}
	],
	"accessors":[
		{
			"bufferView":0,
			"componentType":5126,
			"count":3455,
			"max":[
				105.12442779541016,
				150.29969787597656,
				243.69775390625
			],
			"min":[
				-105.12447357177734,
				-0.1029815673828125,
				-233.41732788085938
			],
			"type":"VEC3"
		},
		{
			"bufferView":1,
			"componentType":5126,
			"count":3455,
			"type":"VEC3"
		},
		{
			"bufferView":2,
			"componentType":5126,
			"count":3455,
			"type":"VEC2"
		},
		{
			"bufferView":3,
			"componentType":5123,
			"count":14106,
			"type":"SCALAR"
		},
		{
			"bufferView":4,
			"componentType":5126,
			"count":34,
			"max":[
				82.72389221191406,
				94.65447998046875,
				227.68002319335938
			],
			"min":[
				49.61524200439453,
				74.0934066772461,
				-222.69140625
			],
			"type":"VEC3"
		},
		{
			"bufferView":5,
			"componentType":5126,
			"count":34,
			"type":"VEC3"
		},
		{
			"bufferView":6,
			"componentType":5126,
			"count":34,
			"type":"VEC2"
		},
		{
			"bufferView":7,
			"componentType":5123,
			"count":84,
			"type":"SCALAR"
		},
		{
			"bufferView":8,
			"componentType":5126,
			"count":34,
			"max":[
				-49.61528015136719,
				94.65447998046875,
				227.68002319335938
			],
			"min":[
				-82.72393798828125,
				74.09341430664062,
				-222.69140625
			],
			"type":"VEC3"
		},
		{
			"bufferView":9,
			"componentType":5126,
			"count":34,
			"type":"VEC3"
		},
		{
			"bufferView":10,
			"componentType":5126,
			"count":34,
			"type":"VEC2"
		},
		{
			"bufferView":11,
			"componentType":5123,
			"count":84,
			"type":"SCALAR"
		},
		{
			"bufferView":12,
			"componentType":5126,
			"count":40,
			"max":[
				80.81838989257812,
				108.74079895019531,
				-184.93685913085938
			],
			"min":[
				-80.81849670410156,
				87.40853881835938,
				-226.96377563476562
			],
			"type":"VEC3"
		},
		{
			"bufferView":13,
			"componentType":5126,
			"count":40,
			"type":"VEC3"
		},
		{
			"bufferView":14,
			"componentType":5126,
			"count":40,
			"type":"VEC2"
		},
		{
			"bufferView":15,
			"componentType":5123,
			"count":96,
			"type":"SCALAR"
		}
	],
	"bufferViews":[
		{
			"buffer":0,
			"byteLength":41460,
			"byteOffset":0,
			"target":34962
		},
		{
			"buffer":0,
			"byteLength":41460,
			"byteOffset":41460,
			"target":34962
		},
		{
			"buffer":0,
			"byteLength":27640,
			"byteOffset":82920,
			"target":34962
		},
		{
			"buffer":0,
			"byteLength":28212,
			"byteOffset":110560,
			"target":34963
		},
		{
			"buffer":0,
			"byteLength":408,
			"byteOffset":138772,
			"target":34962
		},
		{
			"buffer":0,
			"byteLength":408,
			"byteOffset":139180,
			"target":34962
		},
		{
			"buffer":0,
			"byteLength":272,
			"byteOffset":139588,
			"target":34962
		},
		{
			"buffer":0,
			"byteLength":168,
			"byteOffset":139860,
			"target":34963
		},
		{
			"buffer":0,
			"byteLength":408,
			"byteOffset":140028,
			"target":34962
		},
		{
			"buffer":0,
			"byteLength":408,
			"byteOffset":140436,
			"target":34962
		},
		{
			"buffer":0,
			"byteLength":272,
			"byteOffset":140844,
			"target":34962
		},
		{
			"buffer":0,
			"byteLength":168,
			"byteOffset":141116,
			"target":34963
		},
		{
			"buffer":0,
			"byteLength":480,
			"byteOffset":141284,
			"target":34962
		},
		{
			"buffer":0,
			"byteLength":480,
			"byteOffset":141764,
			"target":34962
		},
		{
			"buffer":0,
			"byteLength":320,
			"byteOffset":142244,
			"target":34962
		},
		{
			"buffer":0,
			"byteLength":192,
			"byteOffset":142564,
			"target":34963
		}
	],
	"buffers":[
		{
			"byteLength":142756,
			"uri":"Car.bin"
		}
	]
}
